<svg width="212" height="40" viewBox="0 0 212 40" fill="none" xmlns="http://www.w3.org/2000/svg">
<path fill-rule="evenodd" clip-rule="evenodd" d="M12.2032 20.5876V16.2509L0.214935 20.7068H0.19223V25.157H0.214935L12.2032 29.6128V25.2705L6.0558 22.9205L12.2032 20.5819V20.5876Z" fill="white"/>
<path fill-rule="evenodd" clip-rule="evenodd" d="M81.6408 29.397V25.0603L87.7825 22.7274L81.6408 20.3944V16.0578L93.612 20.5136H93.6404V24.9695H93.612L81.6408 29.4026V29.397ZM76.4981 9.92175L69.4595 32.5189H73.6373L80.6758 9.92175H76.4981Z" fill="white"/>
<path fill-rule="evenodd" clip-rule="evenodd" d="M29.8168 15.6548C31.0088 16.9603 31.6332 18.6859 31.5594 20.4512V30.0781H27.3817V21.3367C27.4328 20.3604 27.1206 19.4068 26.5075 18.6461C25.9286 17.9707 25.0714 17.596 24.1803 17.6358C21.5635 17.6358 20.2523 19.4522 20.2523 23.0793V30.0781H16.0746V14.2754H20.2523V15.7002C21.5805 14.4117 23.3799 13.7248 25.2304 13.8043C26.956 13.7305 28.6248 14.406 29.8168 15.6548Z" fill="white"/>
<path fill-rule="evenodd" clip-rule="evenodd" d="M36.8837 7.48102V30.0782H41.0614V7.48102H36.8837Z" fill="white"/>
<path fill-rule="evenodd" clip-rule="evenodd" d="M64.6857 30.0781H61.2005L57.7833 20.7691L54.3322 30.0781H50.847L44.9891 14.2471H49.4563L52.7485 23.7151L56.1429 14.2471H59.4068L62.8012 23.7434L66.0934 14.2471H70.5606L64.697 30.0781H64.6857Z" fill="white"/>
<path d="M115.943 39.9958C111.662 39.9958 107.165 39.1846 103.64 37.2311V2.76468C107.11 0.866396 111.607 6.34551e-05 115.943 6.34551e-05C120.279 6.34551e-05 124.67 0.811189 128.136 2.76468V15.989H119.408V6.99018C118.381 6.55701 117.132 6.39564 115.888 6.39564C114.644 6.39564 113.501 6.55701 112.418 6.99018V33.0056C113.446 33.4388 114.639 33.6002 115.888 33.6002C117.136 33.6002 118.326 33.4388 119.408 33.0056V24.0111H128.136V37.2354C124.721 39.1337 120.224 39.9448 115.943 40V39.9958Z" fill="white"/>
<path d="M144.503 39.9957C139.895 39.9957 135.453 39.0189 131.928 37.0145V2.926C135.398 0.976747 139.844 0 144.503 0C149.161 0 153.497 0.92154 156.967 2.926V37.0145C153.552 39.0189 149.055 39.9405 144.503 39.9957ZM148.244 7.10053C147.216 6.66736 145.968 6.45078 144.452 6.45078C142.936 6.45078 141.742 6.66736 140.71 7.10053V32.8442C141.738 33.3326 142.987 33.5492 144.452 33.5492C145.917 33.5492 147.161 33.3326 148.244 32.8442V7.10053Z" fill="white"/>
<path d="M172.195 25.3615H169.864V39.5073H161.031V0.488399H172.195C177.508 0.488399 181.517 1.57131 184.659 3.79235V22.0575C181.572 24.2276 177.504 25.3615 172.195 25.3615ZM175.881 7.20672C175.07 6.61218 173.983 6.34039 172.14 6.34039H169.753V19.5095H172.14C173.928 19.5095 175.011 19.2377 175.881 18.6984V7.20672Z" fill="white"/>
<path d="M203.137 39.5073V25.3615H196.635V39.5073H187.857V2.87079C191.055 0.972501 195.552 0 199.888 0C204.224 0 208.666 0.976748 211.864 2.87079V39.5073H203.137ZM203.137 6.77353C202.215 6.34037 201.077 6.12378 199.884 6.12378C198.691 6.12378 197.553 6.34037 196.631 6.77353V19.1825H203.133V6.77353H203.137Z" fill="white"/>
</svg>
